HIERARCHY
ROOT ui
{
	 OFFSET 0 0 0
	 CHANNELS 3 XPosition YPosition Z Position
	 EndSite
	 {
	 OFFSET 0 -1 0
	 }
}
ROOT li
{
	 OFFSET 0 0 0
	 CHANNELS 3 XPosition YPosition Z Position
	 EndSite
	 {
	 OFFSET 0 -1 0
	 }
}
ROOT ul
{
	 OFFSET 0 0 0
	 CHANNELS 3 XPosition YPosition Z Position
	 EndSite
	 {
	 OFFSET 0 -1 0
	 }
}
ROOT ll
{
	 OFFSET 0 0 0
	 CHANNELS 3 XPosition YPosition Z Position
	 EndSite
	 {
	 OFFSET 0 -1 0
	 }
}
ROOT tt
{
	 OFFSET 0 0 0
	 CHANNELS 3 XPosition YPosition Z Position
	 EndSite
	 {
	 OFFSET 0 -1 0
	 }
}
ROOT tb
{
	 OFFSET 0 0 0
	 CHANNELS 3 XPosition YPosition Z Position
	 EndSite
	 {
	 OFFSET 0 -1 0
	 }
}
ROOT td
{
	 OFFSET 0 0 0
	 CHANNELS 3 XPosition YPosition Z Position
	 EndSite
	 {
	 OFFSET 0 -1 0
	 }
}
ROOT v
{
	 OFFSET 0 0 0
	 CHANNELS 3 XPosition YPosition Z Position
	 EndSite
	 {
	 OFFSET 0 -1 0
	 }
}
ROOT bn
{
	 OFFSET 0 0 0
	 CHANNELS 3 XPosition YPosition Z Position
	 EndSite
	 {
	 OFFSET 0 -1 0
	 }
}
MOTION
Frames: 13
Frame Time: 0.002
1.789119988679886E-4	-4.0156200528144835E-4	0		0.461122802734375	-2.331981201171875	0		-0.8228788452148438	0.20692892456054687	0		-0.5528560791015625	-2.42193017578125	0		1.4364759521484376	-0.706967041015625	0		3.157412109375	-0.1209128189086914	0		4.64753515625	-0.02838706588745117	0		5.57187841796875	0.030329925537109375	0		-0.13189155578613282	5.9593798828125	0		
0.009712929725646973	0.008828385353088379	0		0.440697021484375	-2.322151123046875	0		-0.8463216552734375	0.21779920959472657	0		-0.5385642700195312	-2.4268046875	0		1.43888330078125	-0.7045761108398437	0		3.194179931640625	-0.1001727294921875	0		4.639994140625	-0.022751712799072267	0		5.57467041015625	0.052777790069580076	0		-0.1316610565185547	5.9577880859375	0		
0.03404008102416992	0.006769291877746582	0		0.4639798278808594	-2.328183349609375	0		-0.7529912719726563	0.2153636474609375	0		-0.5500161743164063	-2.419162109375	0		1.432365478515625	-0.6990028076171875	0		3.160203857421875	-0.11703533172607422	0		4.65238330078125	-0.021505693435668945	0		5.57056787109375	0.029358728408813477	0		-0.134357421875	5.959259765625	0		
0.005362199783325195	0.003769613027572632	0		0.40691424560546874	-2.301609619140625	0		-0.761755126953125	0.20795834350585937	0		-0.49563543701171875	-2.421809814453125	0		1.420287109375	-0.672303955078125	0		3.1488798828125	-0.10232874298095704	0		4.64076171875	-0.021774471282958983	0		5.5741005859375	0.036805530548095704	0		-0.14926287841796876	5.948982421875	0		
7.09987998008728E-4	3.124780058860779E-4	0		0.4312491455078125	-2.307633056640625	0		-0.831318603515625	0.20977239990234375	0		-0.5701611938476563	-2.419893310546875	0		1.4250504150390626	-0.7059328002929688	0		3.174966796875	-0.11935116577148437	0		4.65600732421875	-0.030560522079467772	0		5.56934912109375	0.028427202224731444	0		-0.14993975830078124	5.94844384765625	0		
0.004208177089691162	0.0027175750732421873	0		0.43226535034179686	-2.331177978515625	0		-0.8668746948242188	0.20993624877929687	0		-0.5598494873046875	-2.428631591796875	0		1.4334385986328124	-0.7096063842773438	0		3.178703125	-0.10490666198730468	0		4.63445166015625	-0.030600610733032226	0		5.55394921875	0.03627924346923828	0		-0.13638368225097655	5.9576484375	0		
0.003683527946472168	0.0022272019386291504	0		0.4358470458984375	-2.32774267578125	0		-0.8574235229492188	0.20823841857910155	0		-0.5912006225585937	-2.421519287109375	0		1.432922607421875	-0.7100794067382813	0		3.173885009765625	-0.12027677154541015	0		4.65319970703125	-0.01741199493408203	0		5.57242041015625	0.03548173522949219	0		-0.13600047302246093	5.95613671875	0		
0.001353680968284607	0.009802797317504882	0		0.4338381652832031	-2.305165283203125	0		-0.8328987426757812	0.20827410888671874	0		-0.49973886108398435	-2.426799560546875	0		1.4265618896484376	-0.7044089965820313	0		3.16755712890625	-0.11258769226074218	0		4.6385966796875	-0.02354642677307129	0		5.5719326171875	0.03508042907714844	0		-0.1507674102783203	5.94495068359375	0		
0.002745232105255127	0.0013329230546951295	0		0.42309677124023437	-2.32139306640625	0		-0.8333511962890625	0.20783404541015624	0		-0.5720733032226563	-2.421819580078125	0		1.4460946044921874	-0.706220947265625	0		3.1879462890625	-0.1214012451171875	0		4.63402880859375	-0.02985403823852539	0		5.56152294921875	0.036898357391357425	0		-0.1522353820800781	5.94653662109375	0		
-0.001726246953010559	-0.0019886540174484254	0		0.4289375	-2.3099111328125	0		-0.7688771362304687	0.20114813232421874	0		-0.5046373901367187	-2.43156201171875	0		1.4395506591796876	-0.7134906005859375	0		3.14585693359375	-0.10495268249511719	0		4.6377333984375	-0.02429702568054199	0		5.55691357421875	0.02662347412109375	0		-0.15173663330078124	5.944115234375	0		
0.001955680966377258	5.625990033149719E-4	0		0.4301237487792969	-2.3333125	0		-0.8691370849609374	0.20773988342285157	0		-0.5640450439453125	-2.4337734375	0		1.4250833740234374	-0.7185740356445313	0		3.177022705078125	-0.12892620849609376	0		4.64219873046875	-0.03273229598999024	0		5.560693359375	0.034210926055908204	0		-0.13695887756347655	5.95344775390625	0		
0.004693693161010743	0.004164935111999512	0		0.47170907592773437	-2.338473388671875	0		-0.82858447265625	0.20159201049804687	0		-0.5494539794921875	-2.43840869140625	0		1.4339420166015624	-0.7090834350585937	0		3.189172607421875	-0.10448832702636719	0		4.64597607421875	-0.027125724792480467	0		5.57448828125	0.040625431060791015	0		-0.13733012390136717	5.95310888671875	0		
0.004388755798339844	0.0038584749698638916	0		0.40713351440429685	-2.3015068359375	0		-0.76582373046875	0.2040427703857422	0		-0.5385158081054687	-2.426935791015625	0		1.450557861328125	-0.713718017578125	0		3.149678955078125	-0.11401386260986328	0		4.65082763671875	-0.019514442443847656	0		5.57004638671875	0.03342011260986328	0		-0.15285136413574218	5.9430986328125	0		
